<mxfile host="app.diagrams.net" modified="2023-04-27T18:38:16.959Z" agent="Mozilla/5.0 (Windows NT 10.0; Win64; x64) AppleWebKit/537.36 (KHTML, like Gecko) Chrome/112.0.0.0 Safari/537.36" etag="_jSIqaJxbKxfMzJI7t7k" version="21.1.1" type="device">
  <diagram name="Página-1" id="LSSmiFFcDF_USh29nz2F">
    <mxGraphModel dx="1635" dy="447" grid="1" gridSize="10" guides="1" tooltips="1" connect="1" arrows="1" fold="1" page="1" pageScale="1" pageWidth="827" pageHeight="1169" math="0" shadow="0">
      <root>
        <mxCell id="0" />
        <mxCell id="1" parent="0" />
        <mxCell id="rVVp5lENT8qKNNDL8PIV-1" value="Nome da Classe" style="swimlane;fontStyle=1;align=center;verticalAlign=top;childLayout=stackLayout;horizontal=1;startSize=26;horizontalStack=0;resizeParent=1;resizeParentMax=0;resizeLast=0;collapsible=1;marginBottom=0;whiteSpace=wrap;html=1;" vertex="1" parent="1">
          <mxGeometry x="230" y="310" width="440" height="140" as="geometry" />
        </mxCell>
        <mxCell id="rVVp5lENT8qKNNDL8PIV-2" value="+ nome do atributo: tipo do atributo" style="text;strokeColor=none;fillColor=none;align=left;verticalAlign=top;spacingLeft=4;spacingRight=4;overflow=hidden;rotatable=0;points=[[0,0.5],[1,0.5]];portConstraint=eastwest;whiteSpace=wrap;html=1;" vertex="1" parent="rVVp5lENT8qKNNDL8PIV-1">
          <mxGeometry y="26" width="440" height="26" as="geometry" />
        </mxCell>
        <mxCell id="rVVp5lENT8qKNNDL8PIV-3" value="" style="line;strokeWidth=1;fillColor=none;align=left;verticalAlign=middle;spacingTop=-1;spacingLeft=3;spacingRight=3;rotatable=0;labelPosition=right;points=[];portConstraint=eastwest;strokeColor=inherit;" vertex="1" parent="rVVp5lENT8qKNNDL8PIV-1">
          <mxGeometry y="52" width="440" height="8" as="geometry" />
        </mxCell>
        <mxCell id="rVVp5lENT8qKNNDL8PIV-4" value="+ nome do método (tipo nomeDoParâmetro(s)): tipo de retorno" style="text;strokeColor=none;fillColor=none;align=left;verticalAlign=top;spacingLeft=4;spacingRight=4;overflow=hidden;rotatable=0;points=[[0,0.5],[1,0.5]];portConstraint=eastwest;whiteSpace=wrap;html=1;" vertex="1" parent="rVVp5lENT8qKNNDL8PIV-1">
          <mxGeometry y="60" width="440" height="80" as="geometry" />
        </mxCell>
        <mxCell id="rVVp5lENT8qKNNDL8PIV-5" value="&lt;i&gt;Conta&lt;/i&gt;" style="swimlane;fontStyle=1;align=center;verticalAlign=top;childLayout=stackLayout;horizontal=1;startSize=26;horizontalStack=0;resizeParent=1;resizeParentMax=0;resizeLast=0;collapsible=1;marginBottom=0;whiteSpace=wrap;html=1;" vertex="1" parent="1">
          <mxGeometry x="205" y="620" width="270" height="216" as="geometry" />
        </mxCell>
        <mxCell id="rVVp5lENT8qKNNDL8PIV-6" value="+ banco: string" style="text;strokeColor=none;fillColor=none;align=left;verticalAlign=top;spacingLeft=4;spacingRight=4;overflow=hidden;rotatable=0;points=[[0,0.5],[1,0.5]];portConstraint=eastwest;whiteSpace=wrap;html=1;" vertex="1" parent="rVVp5lENT8qKNNDL8PIV-5">
          <mxGeometry y="26" width="270" height="26" as="geometry" />
        </mxCell>
        <mxCell id="rVVp5lENT8qKNNDL8PIV-9" value="+ agencia: string" style="text;strokeColor=none;fillColor=none;align=left;verticalAlign=top;spacingLeft=4;spacingRight=4;overflow=hidden;rotatable=0;points=[[0,0.5],[1,0.5]];portConstraint=eastwest;whiteSpace=wrap;html=1;" vertex="1" parent="rVVp5lENT8qKNNDL8PIV-5">
          <mxGeometry y="52" width="270" height="26" as="geometry" />
        </mxCell>
        <mxCell id="rVVp5lENT8qKNNDL8PIV-10" value="+ conta: string" style="text;strokeColor=none;fillColor=none;align=left;verticalAlign=top;spacingLeft=4;spacingRight=4;overflow=hidden;rotatable=0;points=[[0,0.5],[1,0.5]];portConstraint=eastwest;whiteSpace=wrap;html=1;" vertex="1" parent="rVVp5lENT8qKNNDL8PIV-5">
          <mxGeometry y="78" width="270" height="26" as="geometry" />
        </mxCell>
        <mxCell id="rVVp5lENT8qKNNDL8PIV-11" value="# saldo: float" style="text;strokeColor=none;fillColor=none;align=left;verticalAlign=top;spacingLeft=4;spacingRight=4;overflow=hidden;rotatable=0;points=[[0,0.5],[1,0.5]];portConstraint=eastwest;whiteSpace=wrap;html=1;" vertex="1" parent="rVVp5lENT8qKNNDL8PIV-5">
          <mxGeometry y="104" width="270" height="26" as="geometry" />
        </mxCell>
        <mxCell id="rVVp5lENT8qKNNDL8PIV-7" value="" style="line;strokeWidth=1;fillColor=none;align=left;verticalAlign=middle;spacingTop=-1;spacingLeft=3;spacingRight=3;rotatable=0;labelPosition=right;points=[];portConstraint=eastwest;strokeColor=inherit;" vertex="1" parent="rVVp5lENT8qKNNDL8PIV-5">
          <mxGeometry y="130" width="270" height="8" as="geometry" />
        </mxCell>
        <mxCell id="rVVp5lENT8qKNNDL8PIV-12" value="+ depositar(float valor): bool" style="text;strokeColor=none;fillColor=none;align=left;verticalAlign=top;spacingLeft=4;spacingRight=4;overflow=hidden;rotatable=0;points=[[0,0.5],[1,0.5]];portConstraint=eastwest;whiteSpace=wrap;html=1;" vertex="1" parent="rVVp5lENT8qKNNDL8PIV-5">
          <mxGeometry y="138" width="270" height="26" as="geometry" />
        </mxCell>
        <mxCell id="rVVp5lENT8qKNNDL8PIV-13" value="+ sacar(float valor): bool" style="text;strokeColor=none;fillColor=none;align=left;verticalAlign=top;spacingLeft=4;spacingRight=4;overflow=hidden;rotatable=0;points=[[0,0.5],[1,0.5]];portConstraint=eastwest;whiteSpace=wrap;html=1;" vertex="1" parent="rVVp5lENT8qKNNDL8PIV-5">
          <mxGeometry y="164" width="270" height="26" as="geometry" />
        </mxCell>
        <mxCell id="rVVp5lENT8qKNNDL8PIV-8" value="+ transferir(float valor, string conta): bool" style="text;strokeColor=none;fillColor=none;align=left;verticalAlign=top;spacingLeft=4;spacingRight=4;overflow=hidden;rotatable=0;points=[[0,0.5],[1,0.5]];portConstraint=eastwest;whiteSpace=wrap;html=1;" vertex="1" parent="rVVp5lENT8qKNNDL8PIV-5">
          <mxGeometry y="190" width="270" height="26" as="geometry" />
        </mxCell>
        <mxCell id="rVVp5lENT8qKNNDL8PIV-14" value="&lt;b&gt;&lt;font style=&quot;font-size: 18px;&quot;&gt;Herança&lt;/font&gt;&lt;/b&gt;" style="text;html=1;align=center;verticalAlign=middle;resizable=0;points=[];autosize=1;strokeColor=none;fillColor=none;" vertex="1" parent="1">
          <mxGeometry x="295" y="535" width="90" height="40" as="geometry" />
        </mxCell>
        <mxCell id="rVVp5lENT8qKNNDL8PIV-15" value="&lt;font style=&quot;font-size: 18px;&quot;&gt;Ligações&lt;/font&gt;&lt;br style=&quot;color: rgb(32, 33, 36); font-family: Roboto, Arial, sans-serif; font-size: 16px; font-variant-ligatures: none; letter-spacing: 0.1px; text-align: start; background-color: rgb(232, 234, 237);&quot;&gt;&lt;span style=&quot;color: rgb(32, 33, 36); font-family: Roboto, Arial, sans-serif; font-size: 16px; font-variant-ligatures: none; letter-spacing: 0.1px; text-align: start; background-color: rgb(232, 234, 237);&quot;&gt;Herança: quando uma classe concreta (classe filha) herda métodos e atributos de uma superclasse (classe pai/classe abstrata).&lt;/span&gt;&lt;br style=&quot;color: rgb(32, 33, 36); font-family: Roboto, Arial, sans-serif; font-size: 16px; font-variant-ligatures: none; letter-spacing: 0.1px; text-align: start; background-color: rgb(232, 234, 237);&quot;&gt;&lt;span style=&quot;color: rgb(32, 33, 36); font-family: Roboto, Arial, sans-serif; font-size: 16px; font-variant-ligatures: none; letter-spacing: 0.1px; text-align: start; background-color: rgb(232, 234, 237);&quot;&gt;Composição: quando determinada classe depende da existência de outra para existir.&lt;/span&gt;&lt;br style=&quot;color: rgb(32, 33, 36); font-family: Roboto, Arial, sans-serif; font-size: 16px; font-variant-ligatures: none; letter-spacing: 0.1px; text-align: start; background-color: rgb(232, 234, 237);&quot;&gt;&lt;span style=&quot;color: rgb(32, 33, 36); font-family: Roboto, Arial, sans-serif; font-size: 16px; font-variant-ligatures: none; letter-spacing: 0.1px; text-align: start; background-color: rgb(232, 234, 237);&quot;&gt;Agregação: quando determinada classe pode existir por conta própria mas ainda assim pode ligar-se à outra classe.&lt;/span&gt;&lt;br style=&quot;color: rgb(32, 33, 36); font-family: Roboto, Arial, sans-serif; font-size: 16px; font-variant-ligatures: none; letter-spacing: 0.1px; text-align: start; background-color: rgb(232, 234, 237);&quot;&gt;&lt;span style=&quot;color: rgb(32, 33, 36); font-family: Roboto, Arial, sans-serif; font-size: 16px; font-variant-ligatures: none; letter-spacing: 0.1px; text-align: start; background-color: rgb(232, 234, 237);&quot;&gt;Associação: quando uma classe nos dá a opção de criarmos objetos que podem estar associados a um grupo ou simplesmente existir sozinha.&lt;/span&gt;" style="text;html=1;align=center;verticalAlign=middle;resizable=0;points=[];autosize=1;strokeColor=none;fillColor=none;" vertex="1" parent="1">
          <mxGeometry x="-115" y="140" width="1050" height="110" as="geometry" />
        </mxCell>
        <mxCell id="rVVp5lENT8qKNNDL8PIV-16" value="&lt;font style=&quot;font-size: 18px;&quot;&gt;UML parte da engenharia de software. (aba UML no draw.io)&lt;br style=&quot;color: rgb(32, 33, 36); font-family: Roboto, Arial, sans-serif; font-variant-ligatures: none; letter-spacing: 0.1px; text-align: start; background-color: rgb(232, 234, 237);&quot;&gt;&lt;/font&gt;&lt;span style=&quot;color: rgb(32, 33, 36); font-family: Roboto, Arial, sans-serif; font-size: 16px; font-variant-ligatures: none; letter-spacing: 0.1px; text-align: start; background-color: rgb(232, 234, 237);&quot;&gt;Modificadores de acesso&lt;/span&gt;&lt;br style=&quot;color: rgb(32, 33, 36); font-family: Roboto, Arial, sans-serif; font-size: 16px; font-variant-ligatures: none; letter-spacing: 0.1px; text-align: start; background-color: rgb(232, 234, 237);&quot;&gt;&lt;span style=&quot;color: rgb(32, 33, 36); font-family: Roboto, Arial, sans-serif; font-size: 16px; font-variant-ligatures: none; letter-spacing: 0.1px; text-align: start; background-color: rgb(232, 234, 237);&quot;&gt;+ publico: propriedade ou método pode ser acessado de qualquer parte do sistema.&lt;/span&gt;&lt;br style=&quot;color: rgb(32, 33, 36); font-family: Roboto, Arial, sans-serif; font-size: 16px; font-variant-ligatures: none; letter-spacing: 0.1px; text-align: start; background-color: rgb(232, 234, 237);&quot;&gt;&lt;span style=&quot;color: rgb(32, 33, 36); font-family: Roboto, Arial, sans-serif; font-size: 16px; font-variant-ligatures: none; letter-spacing: 0.1px; text-align: start; background-color: rgb(232, 234, 237);&quot;&gt;- privado: propriedade ou método pode ser acessado somente dentro da própria classe.&lt;/span&gt;&lt;br style=&quot;color: rgb(32, 33, 36); font-family: Roboto, Arial, sans-serif; font-size: 16px; font-variant-ligatures: none; letter-spacing: 0.1px; text-align: start; background-color: rgb(232, 234, 237);&quot;&gt;&lt;span style=&quot;color: rgb(32, 33, 36); font-family: Roboto, Arial, sans-serif; font-size: 16px; font-variant-ligatures: none; letter-spacing: 0.1px; text-align: start; background-color: rgb(232, 234, 237);&quot;&gt;# protegido: propriedade ou método pode ser acessado a partir de uma classe que herda de outra classe.&lt;/span&gt;" style="text;html=1;align=center;verticalAlign=middle;resizable=0;points=[];autosize=1;strokeColor=none;fillColor=none;" vertex="1" parent="1">
          <mxGeometry x="20" y="10" width="780" height="110" as="geometry" />
        </mxCell>
        <mxCell id="rVVp5lENT8qKNNDL8PIV-17" value="Classe abstrata ou superclasse" style="text;html=1;align=center;verticalAlign=middle;resizable=0;points=[];autosize=1;strokeColor=none;fillColor=none;" vertex="1" parent="1">
          <mxGeometry x="205" y="570" width="190" height="30" as="geometry" />
        </mxCell>
        <mxCell id="rVVp5lENT8qKNNDL8PIV-27" style="edgeStyle=orthogonalEdgeStyle;rounded=0;orthogonalLoop=1;jettySize=auto;html=1;entryX=1;entryY=0.5;entryDx=0;entryDy=0;endArrow=block;endFill=0;strokeWidth=1;endSize=12;" edge="1" parent="1" source="rVVp5lENT8qKNNDL8PIV-18" target="rVVp5lENT8qKNNDL8PIV-10">
          <mxGeometry relative="1" as="geometry" />
        </mxCell>
        <mxCell id="rVVp5lENT8qKNNDL8PIV-18" value="ContaCorrente" style="swimlane;fontStyle=1;align=center;verticalAlign=top;childLayout=stackLayout;horizontal=1;startSize=26;horizontalStack=0;resizeParent=1;resizeParentMax=0;resizeLast=0;collapsible=1;marginBottom=0;whiteSpace=wrap;html=1;" vertex="1" parent="1">
          <mxGeometry x="540" y="620" width="160" height="60" as="geometry" />
        </mxCell>
        <mxCell id="rVVp5lENT8qKNNDL8PIV-19" value="- limite: float" style="text;strokeColor=none;fillColor=none;align=left;verticalAlign=top;spacingLeft=4;spacingRight=4;overflow=hidden;rotatable=0;points=[[0,0.5],[1,0.5]];portConstraint=eastwest;whiteSpace=wrap;html=1;" vertex="1" parent="rVVp5lENT8qKNNDL8PIV-18">
          <mxGeometry y="26" width="160" height="26" as="geometry" />
        </mxCell>
        <mxCell id="rVVp5lENT8qKNNDL8PIV-20" value="" style="line;strokeWidth=1;fillColor=none;align=left;verticalAlign=middle;spacingTop=-1;spacingLeft=3;spacingRight=3;rotatable=0;labelPosition=right;points=[];portConstraint=eastwest;strokeColor=inherit;" vertex="1" parent="rVVp5lENT8qKNNDL8PIV-18">
          <mxGeometry y="52" width="160" height="8" as="geometry" />
        </mxCell>
        <mxCell id="rVVp5lENT8qKNNDL8PIV-28" style="edgeStyle=orthogonalEdgeStyle;rounded=0;orthogonalLoop=1;jettySize=auto;html=1;entryX=1;entryY=0.5;entryDx=0;entryDy=0;startSize=6;endArrow=block;endFill=0;endSize=12;" edge="1" parent="1" source="rVVp5lENT8qKNNDL8PIV-22" target="rVVp5lENT8qKNNDL8PIV-11">
          <mxGeometry relative="1" as="geometry" />
        </mxCell>
        <mxCell id="rVVp5lENT8qKNNDL8PIV-22" value="ContaPoupanca" style="swimlane;fontStyle=1;align=center;verticalAlign=top;childLayout=stackLayout;horizontal=1;startSize=26;horizontalStack=0;resizeParent=1;resizeParentMax=0;resizeLast=0;collapsible=1;marginBottom=0;whiteSpace=wrap;html=1;" vertex="1" parent="1">
          <mxGeometry x="540" y="776" width="160" height="60" as="geometry" />
        </mxCell>
        <mxCell id="rVVp5lENT8qKNNDL8PIV-23" value="+ aniversario: date" style="text;strokeColor=none;fillColor=none;align=left;verticalAlign=top;spacingLeft=4;spacingRight=4;overflow=hidden;rotatable=0;points=[[0,0.5],[1,0.5]];portConstraint=eastwest;whiteSpace=wrap;html=1;" vertex="1" parent="rVVp5lENT8qKNNDL8PIV-22">
          <mxGeometry y="26" width="160" height="26" as="geometry" />
        </mxCell>
        <mxCell id="rVVp5lENT8qKNNDL8PIV-24" value="" style="line;strokeWidth=1;fillColor=none;align=left;verticalAlign=middle;spacingTop=-1;spacingLeft=3;spacingRight=3;rotatable=0;labelPosition=right;points=[];portConstraint=eastwest;strokeColor=inherit;" vertex="1" parent="rVVp5lENT8qKNNDL8PIV-22">
          <mxGeometry y="52" width="160" height="8" as="geometry" />
        </mxCell>
        <mxCell id="rVVp5lENT8qKNNDL8PIV-30" value="&lt;b&gt;&lt;font style=&quot;font-size: 18px;&quot;&gt;Composição&lt;/font&gt;&lt;/b&gt;" style="text;html=1;align=center;verticalAlign=middle;resizable=0;points=[];autosize=1;strokeColor=none;fillColor=none;" vertex="1" parent="1">
          <mxGeometry x="330" y="885" width="130" height="40" as="geometry" />
        </mxCell>
        <mxCell id="rVVp5lENT8qKNNDL8PIV-47" style="edgeStyle=orthogonalEdgeStyle;rounded=0;orthogonalLoop=1;jettySize=auto;html=1;entryX=0;entryY=0.5;entryDx=0;entryDy=0;endArrow=diamondThin;endFill=1;endSize=12;" edge="1" parent="1" source="rVVp5lENT8qKNNDL8PIV-31" target="rVVp5lENT8qKNNDL8PIV-36">
          <mxGeometry relative="1" as="geometry" />
        </mxCell>
        <mxCell id="rVVp5lENT8qKNNDL8PIV-31" value="Cabeca" style="swimlane;fontStyle=1;align=center;verticalAlign=top;childLayout=stackLayout;horizontal=1;startSize=26;horizontalStack=0;resizeParent=1;resizeParentMax=0;resizeLast=0;collapsible=1;marginBottom=0;whiteSpace=wrap;html=1;" vertex="1" parent="1">
          <mxGeometry x="30" y="960" width="160" height="86" as="geometry" />
        </mxCell>
        <mxCell id="rVVp5lENT8qKNNDL8PIV-32" value="+ field: type" style="text;strokeColor=none;fillColor=none;align=left;verticalAlign=top;spacingLeft=4;spacingRight=4;overflow=hidden;rotatable=0;points=[[0,0.5],[1,0.5]];portConstraint=eastwest;whiteSpace=wrap;html=1;" vertex="1" parent="rVVp5lENT8qKNNDL8PIV-31">
          <mxGeometry y="26" width="160" height="26" as="geometry" />
        </mxCell>
        <mxCell id="rVVp5lENT8qKNNDL8PIV-33" value="" style="line;strokeWidth=1;fillColor=none;align=left;verticalAlign=middle;spacingTop=-1;spacingLeft=3;spacingRight=3;rotatable=0;labelPosition=right;points=[];portConstraint=eastwest;strokeColor=inherit;" vertex="1" parent="rVVp5lENT8qKNNDL8PIV-31">
          <mxGeometry y="52" width="160" height="8" as="geometry" />
        </mxCell>
        <mxCell id="rVVp5lENT8qKNNDL8PIV-34" value="+ method(type): type" style="text;strokeColor=none;fillColor=none;align=left;verticalAlign=top;spacingLeft=4;spacingRight=4;overflow=hidden;rotatable=0;points=[[0,0.5],[1,0.5]];portConstraint=eastwest;whiteSpace=wrap;html=1;" vertex="1" parent="rVVp5lENT8qKNNDL8PIV-31">
          <mxGeometry y="60" width="160" height="26" as="geometry" />
        </mxCell>
        <mxCell id="rVVp5lENT8qKNNDL8PIV-35" value="Pessoa" style="swimlane;fontStyle=1;align=center;verticalAlign=top;childLayout=stackLayout;horizontal=1;startSize=26;horizontalStack=0;resizeParent=1;resizeParentMax=0;resizeLast=0;collapsible=1;marginBottom=0;whiteSpace=wrap;html=1;" vertex="1" parent="1">
          <mxGeometry x="315" y="960" width="160" height="86" as="geometry" />
        </mxCell>
        <mxCell id="rVVp5lENT8qKNNDL8PIV-36" value="+ field: type" style="text;strokeColor=none;fillColor=none;align=left;verticalAlign=top;spacingLeft=4;spacingRight=4;overflow=hidden;rotatable=0;points=[[0,0.5],[1,0.5]];portConstraint=eastwest;whiteSpace=wrap;html=1;" vertex="1" parent="rVVp5lENT8qKNNDL8PIV-35">
          <mxGeometry y="26" width="160" height="26" as="geometry" />
        </mxCell>
        <mxCell id="rVVp5lENT8qKNNDL8PIV-37" value="" style="line;strokeWidth=1;fillColor=none;align=left;verticalAlign=middle;spacingTop=-1;spacingLeft=3;spacingRight=3;rotatable=0;labelPosition=right;points=[];portConstraint=eastwest;strokeColor=inherit;" vertex="1" parent="rVVp5lENT8qKNNDL8PIV-35">
          <mxGeometry y="52" width="160" height="8" as="geometry" />
        </mxCell>
        <mxCell id="rVVp5lENT8qKNNDL8PIV-38" value="+ method(type): type" style="text;strokeColor=none;fillColor=none;align=left;verticalAlign=top;spacingLeft=4;spacingRight=4;overflow=hidden;rotatable=0;points=[[0,0.5],[1,0.5]];portConstraint=eastwest;whiteSpace=wrap;html=1;" vertex="1" parent="rVVp5lENT8qKNNDL8PIV-35">
          <mxGeometry y="60" width="160" height="26" as="geometry" />
        </mxCell>
        <mxCell id="rVVp5lENT8qKNNDL8PIV-48" style="edgeStyle=orthogonalEdgeStyle;rounded=0;orthogonalLoop=1;jettySize=auto;html=1;entryX=0.415;entryY=1.023;entryDx=0;entryDy=0;entryPerimeter=0;endArrow=diamondThin;endFill=1;startSize=6;endSize=12;" edge="1" parent="1" source="rVVp5lENT8qKNNDL8PIV-39" target="rVVp5lENT8qKNNDL8PIV-38">
          <mxGeometry relative="1" as="geometry" />
        </mxCell>
        <mxCell id="rVVp5lENT8qKNNDL8PIV-39" value="Braco" style="swimlane;fontStyle=1;align=center;verticalAlign=top;childLayout=stackLayout;horizontal=1;startSize=26;horizontalStack=0;resizeParent=1;resizeParentMax=0;resizeLast=0;collapsible=1;marginBottom=0;whiteSpace=wrap;html=1;" vertex="1" parent="1">
          <mxGeometry x="315" y="1130" width="160" height="86" as="geometry" />
        </mxCell>
        <mxCell id="rVVp5lENT8qKNNDL8PIV-40" value="+ field: type" style="text;strokeColor=none;fillColor=none;align=left;verticalAlign=top;spacingLeft=4;spacingRight=4;overflow=hidden;rotatable=0;points=[[0,0.5],[1,0.5]];portConstraint=eastwest;whiteSpace=wrap;html=1;" vertex="1" parent="rVVp5lENT8qKNNDL8PIV-39">
          <mxGeometry y="26" width="160" height="26" as="geometry" />
        </mxCell>
        <mxCell id="rVVp5lENT8qKNNDL8PIV-41" value="" style="line;strokeWidth=1;fillColor=none;align=left;verticalAlign=middle;spacingTop=-1;spacingLeft=3;spacingRight=3;rotatable=0;labelPosition=right;points=[];portConstraint=eastwest;strokeColor=inherit;" vertex="1" parent="rVVp5lENT8qKNNDL8PIV-39">
          <mxGeometry y="52" width="160" height="8" as="geometry" />
        </mxCell>
        <mxCell id="rVVp5lENT8qKNNDL8PIV-42" value="+ method(type): type" style="text;strokeColor=none;fillColor=none;align=left;verticalAlign=top;spacingLeft=4;spacingRight=4;overflow=hidden;rotatable=0;points=[[0,0.5],[1,0.5]];portConstraint=eastwest;whiteSpace=wrap;html=1;" vertex="1" parent="rVVp5lENT8qKNNDL8PIV-39">
          <mxGeometry y="60" width="160" height="26" as="geometry" />
        </mxCell>
        <mxCell id="rVVp5lENT8qKNNDL8PIV-49" style="edgeStyle=orthogonalEdgeStyle;rounded=0;orthogonalLoop=1;jettySize=auto;html=1;entryX=1;entryY=0.5;entryDx=0;entryDy=0;endArrow=diamondThin;endFill=1;endSize=12;" edge="1" parent="1" source="rVVp5lENT8qKNNDL8PIV-43" target="rVVp5lENT8qKNNDL8PIV-36">
          <mxGeometry relative="1" as="geometry" />
        </mxCell>
        <mxCell id="rVVp5lENT8qKNNDL8PIV-43" value="Perna" style="swimlane;fontStyle=1;align=center;verticalAlign=top;childLayout=stackLayout;horizontal=1;startSize=26;horizontalStack=0;resizeParent=1;resizeParentMax=0;resizeLast=0;collapsible=1;marginBottom=0;whiteSpace=wrap;html=1;" vertex="1" parent="1">
          <mxGeometry x="600" y="960" width="160" height="86" as="geometry" />
        </mxCell>
        <mxCell id="rVVp5lENT8qKNNDL8PIV-44" value="+ field: type" style="text;strokeColor=none;fillColor=none;align=left;verticalAlign=top;spacingLeft=4;spacingRight=4;overflow=hidden;rotatable=0;points=[[0,0.5],[1,0.5]];portConstraint=eastwest;whiteSpace=wrap;html=1;" vertex="1" parent="rVVp5lENT8qKNNDL8PIV-43">
          <mxGeometry y="26" width="160" height="26" as="geometry" />
        </mxCell>
        <mxCell id="rVVp5lENT8qKNNDL8PIV-45" value="" style="line;strokeWidth=1;fillColor=none;align=left;verticalAlign=middle;spacingTop=-1;spacingLeft=3;spacingRight=3;rotatable=0;labelPosition=right;points=[];portConstraint=eastwest;strokeColor=inherit;" vertex="1" parent="rVVp5lENT8qKNNDL8PIV-43">
          <mxGeometry y="52" width="160" height="8" as="geometry" />
        </mxCell>
        <mxCell id="rVVp5lENT8qKNNDL8PIV-46" value="+ method(type): type" style="text;strokeColor=none;fillColor=none;align=left;verticalAlign=top;spacingLeft=4;spacingRight=4;overflow=hidden;rotatable=0;points=[[0,0.5],[1,0.5]];portConstraint=eastwest;whiteSpace=wrap;html=1;" vertex="1" parent="rVVp5lENT8qKNNDL8PIV-43">
          <mxGeometry y="60" width="160" height="26" as="geometry" />
        </mxCell>
        <mxCell id="rVVp5lENT8qKNNDL8PIV-50" value="&lt;b&gt;&lt;font style=&quot;font-size: 18px;&quot;&gt;Agregação&lt;/font&gt;&lt;/b&gt;" style="text;html=1;align=center;verticalAlign=middle;resizable=0;points=[];autosize=1;strokeColor=none;fillColor=none;" vertex="1" parent="1">
          <mxGeometry x="370" y="1260" width="120" height="40" as="geometry" />
        </mxCell>
        <mxCell id="rVVp5lENT8qKNNDL8PIV-68" style="edgeStyle=orthogonalEdgeStyle;rounded=0;orthogonalLoop=1;jettySize=auto;html=1;entryX=-0.025;entryY=0.833;entryDx=0;entryDy=0;entryPerimeter=0;endArrow=diamondThin;endFill=0;endSize=12;" edge="1" parent="1" source="rVVp5lENT8qKNNDL8PIV-51" target="rVVp5lENT8qKNNDL8PIV-56">
          <mxGeometry relative="1" as="geometry" />
        </mxCell>
        <mxCell id="rVVp5lENT8qKNNDL8PIV-51" value="Motor" style="swimlane;fontStyle=1;align=center;verticalAlign=top;childLayout=stackLayout;horizontal=1;startSize=26;horizontalStack=0;resizeParent=1;resizeParentMax=0;resizeLast=0;collapsible=1;marginBottom=0;whiteSpace=wrap;html=1;" vertex="1" parent="1">
          <mxGeometry x="50" y="1330" width="160" height="86" as="geometry" />
        </mxCell>
        <mxCell id="rVVp5lENT8qKNNDL8PIV-52" value="+ field: type" style="text;strokeColor=none;fillColor=none;align=left;verticalAlign=top;spacingLeft=4;spacingRight=4;overflow=hidden;rotatable=0;points=[[0,0.5],[1,0.5]];portConstraint=eastwest;whiteSpace=wrap;html=1;" vertex="1" parent="rVVp5lENT8qKNNDL8PIV-51">
          <mxGeometry y="26" width="160" height="26" as="geometry" />
        </mxCell>
        <mxCell id="rVVp5lENT8qKNNDL8PIV-53" value="" style="line;strokeWidth=1;fillColor=none;align=left;verticalAlign=middle;spacingTop=-1;spacingLeft=3;spacingRight=3;rotatable=0;labelPosition=right;points=[];portConstraint=eastwest;strokeColor=inherit;" vertex="1" parent="rVVp5lENT8qKNNDL8PIV-51">
          <mxGeometry y="52" width="160" height="8" as="geometry" />
        </mxCell>
        <mxCell id="rVVp5lENT8qKNNDL8PIV-54" value="+ method(type): type" style="text;strokeColor=none;fillColor=none;align=left;verticalAlign=top;spacingLeft=4;spacingRight=4;overflow=hidden;rotatable=0;points=[[0,0.5],[1,0.5]];portConstraint=eastwest;whiteSpace=wrap;html=1;" vertex="1" parent="rVVp5lENT8qKNNDL8PIV-51">
          <mxGeometry y="60" width="160" height="26" as="geometry" />
        </mxCell>
        <mxCell id="rVVp5lENT8qKNNDL8PIV-55" value="Carro" style="swimlane;fontStyle=1;align=center;verticalAlign=top;childLayout=stackLayout;horizontal=1;startSize=26;horizontalStack=0;resizeParent=1;resizeParentMax=0;resizeLast=0;collapsible=1;marginBottom=0;whiteSpace=wrap;html=1;" vertex="1" parent="1">
          <mxGeometry x="340" y="1330" width="160" height="86" as="geometry" />
        </mxCell>
        <mxCell id="rVVp5lENT8qKNNDL8PIV-56" value="+ field: type" style="text;strokeColor=none;fillColor=none;align=left;verticalAlign=top;spacingLeft=4;spacingRight=4;overflow=hidden;rotatable=0;points=[[0,0.5],[1,0.5]];portConstraint=eastwest;whiteSpace=wrap;html=1;" vertex="1" parent="rVVp5lENT8qKNNDL8PIV-55">
          <mxGeometry y="26" width="160" height="26" as="geometry" />
        </mxCell>
        <mxCell id="rVVp5lENT8qKNNDL8PIV-57" value="" style="line;strokeWidth=1;fillColor=none;align=left;verticalAlign=middle;spacingTop=-1;spacingLeft=3;spacingRight=3;rotatable=0;labelPosition=right;points=[];portConstraint=eastwest;strokeColor=inherit;" vertex="1" parent="rVVp5lENT8qKNNDL8PIV-55">
          <mxGeometry y="52" width="160" height="8" as="geometry" />
        </mxCell>
        <mxCell id="rVVp5lENT8qKNNDL8PIV-58" value="+ method(type): type" style="text;strokeColor=none;fillColor=none;align=left;verticalAlign=top;spacingLeft=4;spacingRight=4;overflow=hidden;rotatable=0;points=[[0,0.5],[1,0.5]];portConstraint=eastwest;whiteSpace=wrap;html=1;" vertex="1" parent="rVVp5lENT8qKNNDL8PIV-55">
          <mxGeometry y="60" width="160" height="26" as="geometry" />
        </mxCell>
        <mxCell id="rVVp5lENT8qKNNDL8PIV-69" style="edgeStyle=orthogonalEdgeStyle;rounded=0;orthogonalLoop=1;jettySize=auto;html=1;entryX=1;entryY=0.5;entryDx=0;entryDy=0;endArrow=diamondThin;endFill=0;endSize=12;" edge="1" parent="1" source="rVVp5lENT8qKNNDL8PIV-59" target="rVVp5lENT8qKNNDL8PIV-56">
          <mxGeometry relative="1" as="geometry" />
        </mxCell>
        <mxCell id="rVVp5lENT8qKNNDL8PIV-59" value="Porta" style="swimlane;fontStyle=1;align=center;verticalAlign=top;childLayout=stackLayout;horizontal=1;startSize=26;horizontalStack=0;resizeParent=1;resizeParentMax=0;resizeLast=0;collapsible=1;marginBottom=0;whiteSpace=wrap;html=1;" vertex="1" parent="1">
          <mxGeometry x="650" y="1330" width="160" height="86" as="geometry" />
        </mxCell>
        <mxCell id="rVVp5lENT8qKNNDL8PIV-60" value="+ field: type" style="text;strokeColor=none;fillColor=none;align=left;verticalAlign=top;spacingLeft=4;spacingRight=4;overflow=hidden;rotatable=0;points=[[0,0.5],[1,0.5]];portConstraint=eastwest;whiteSpace=wrap;html=1;" vertex="1" parent="rVVp5lENT8qKNNDL8PIV-59">
          <mxGeometry y="26" width="160" height="26" as="geometry" />
        </mxCell>
        <mxCell id="rVVp5lENT8qKNNDL8PIV-61" value="" style="line;strokeWidth=1;fillColor=none;align=left;verticalAlign=middle;spacingTop=-1;spacingLeft=3;spacingRight=3;rotatable=0;labelPosition=right;points=[];portConstraint=eastwest;strokeColor=inherit;" vertex="1" parent="rVVp5lENT8qKNNDL8PIV-59">
          <mxGeometry y="52" width="160" height="8" as="geometry" />
        </mxCell>
        <mxCell id="rVVp5lENT8qKNNDL8PIV-62" value="+ method(type): type" style="text;strokeColor=none;fillColor=none;align=left;verticalAlign=top;spacingLeft=4;spacingRight=4;overflow=hidden;rotatable=0;points=[[0,0.5],[1,0.5]];portConstraint=eastwest;whiteSpace=wrap;html=1;" vertex="1" parent="rVVp5lENT8qKNNDL8PIV-59">
          <mxGeometry y="60" width="160" height="26" as="geometry" />
        </mxCell>
        <mxCell id="rVVp5lENT8qKNNDL8PIV-67" style="edgeStyle=orthogonalEdgeStyle;rounded=0;orthogonalLoop=1;jettySize=auto;html=1;entryX=0.496;entryY=1.013;entryDx=0;entryDy=0;entryPerimeter=0;endArrow=diamondThin;endFill=0;endSize=12;" edge="1" parent="1" source="rVVp5lENT8qKNNDL8PIV-63" target="rVVp5lENT8qKNNDL8PIV-58">
          <mxGeometry relative="1" as="geometry" />
        </mxCell>
        <mxCell id="rVVp5lENT8qKNNDL8PIV-63" value="Roda" style="swimlane;fontStyle=1;align=center;verticalAlign=top;childLayout=stackLayout;horizontal=1;startSize=26;horizontalStack=0;resizeParent=1;resizeParentMax=0;resizeLast=0;collapsible=1;marginBottom=0;whiteSpace=wrap;html=1;" vertex="1" parent="1">
          <mxGeometry x="340" y="1530" width="160" height="86" as="geometry" />
        </mxCell>
        <mxCell id="rVVp5lENT8qKNNDL8PIV-64" value="+ field: type" style="text;strokeColor=none;fillColor=none;align=left;verticalAlign=top;spacingLeft=4;spacingRight=4;overflow=hidden;rotatable=0;points=[[0,0.5],[1,0.5]];portConstraint=eastwest;whiteSpace=wrap;html=1;" vertex="1" parent="rVVp5lENT8qKNNDL8PIV-63">
          <mxGeometry y="26" width="160" height="26" as="geometry" />
        </mxCell>
        <mxCell id="rVVp5lENT8qKNNDL8PIV-65" value="" style="line;strokeWidth=1;fillColor=none;align=left;verticalAlign=middle;spacingTop=-1;spacingLeft=3;spacingRight=3;rotatable=0;labelPosition=right;points=[];portConstraint=eastwest;strokeColor=inherit;" vertex="1" parent="rVVp5lENT8qKNNDL8PIV-63">
          <mxGeometry y="52" width="160" height="8" as="geometry" />
        </mxCell>
        <mxCell id="rVVp5lENT8qKNNDL8PIV-66" value="+ method(type): type" style="text;strokeColor=none;fillColor=none;align=left;verticalAlign=top;spacingLeft=4;spacingRight=4;overflow=hidden;rotatable=0;points=[[0,0.5],[1,0.5]];portConstraint=eastwest;whiteSpace=wrap;html=1;" vertex="1" parent="rVVp5lENT8qKNNDL8PIV-63">
          <mxGeometry y="60" width="160" height="26" as="geometry" />
        </mxCell>
        <mxCell id="rVVp5lENT8qKNNDL8PIV-70" value="&lt;b&gt;&lt;font style=&quot;font-size: 18px;&quot;&gt;Associação&lt;/font&gt;&lt;/b&gt;" style="text;html=1;align=center;verticalAlign=middle;resizable=0;points=[];autosize=1;strokeColor=none;fillColor=none;" vertex="1" parent="1">
          <mxGeometry x="350" y="1670" width="120" height="40" as="geometry" />
        </mxCell>
        <mxCell id="rVVp5lENT8qKNNDL8PIV-79" value="Trabalho" style="edgeStyle=orthogonalEdgeStyle;rounded=0;orthogonalLoop=1;jettySize=auto;html=1;entryX=0;entryY=0.5;entryDx=0;entryDy=0;endArrow=open;endFill=0;" edge="1" parent="1" source="rVVp5lENT8qKNNDL8PIV-71" target="rVVp5lENT8qKNNDL8PIV-76">
          <mxGeometry relative="1" as="geometry" />
        </mxCell>
        <mxCell id="rVVp5lENT8qKNNDL8PIV-71" value="Pessoa" style="swimlane;fontStyle=1;align=center;verticalAlign=top;childLayout=stackLayout;horizontal=1;startSize=26;horizontalStack=0;resizeParent=1;resizeParentMax=0;resizeLast=0;collapsible=1;marginBottom=0;whiteSpace=wrap;html=1;" vertex="1" parent="1">
          <mxGeometry x="180" y="1753.5" width="160" height="86" as="geometry" />
        </mxCell>
        <mxCell id="rVVp5lENT8qKNNDL8PIV-72" value="+ field: type" style="text;strokeColor=none;fillColor=none;align=left;verticalAlign=top;spacingLeft=4;spacingRight=4;overflow=hidden;rotatable=0;points=[[0,0.5],[1,0.5]];portConstraint=eastwest;whiteSpace=wrap;html=1;" vertex="1" parent="rVVp5lENT8qKNNDL8PIV-71">
          <mxGeometry y="26" width="160" height="26" as="geometry" />
        </mxCell>
        <mxCell id="rVVp5lENT8qKNNDL8PIV-73" value="" style="line;strokeWidth=1;fillColor=none;align=left;verticalAlign=middle;spacingTop=-1;spacingLeft=3;spacingRight=3;rotatable=0;labelPosition=right;points=[];portConstraint=eastwest;strokeColor=inherit;" vertex="1" parent="rVVp5lENT8qKNNDL8PIV-71">
          <mxGeometry y="52" width="160" height="8" as="geometry" />
        </mxCell>
        <mxCell id="rVVp5lENT8qKNNDL8PIV-74" value="+ method(type): type" style="text;strokeColor=none;fillColor=none;align=left;verticalAlign=top;spacingLeft=4;spacingRight=4;overflow=hidden;rotatable=0;points=[[0,0.5],[1,0.5]];portConstraint=eastwest;whiteSpace=wrap;html=1;" vertex="1" parent="rVVp5lENT8qKNNDL8PIV-71">
          <mxGeometry y="60" width="160" height="26" as="geometry" />
        </mxCell>
        <mxCell id="rVVp5lENT8qKNNDL8PIV-75" value="Empresa" style="swimlane;fontStyle=1;align=center;verticalAlign=top;childLayout=stackLayout;horizontal=1;startSize=26;horizontalStack=0;resizeParent=1;resizeParentMax=0;resizeLast=0;collapsible=1;marginBottom=0;whiteSpace=wrap;html=1;" vertex="1" parent="1">
          <mxGeometry x="470" y="1753.5" width="160" height="86" as="geometry" />
        </mxCell>
        <mxCell id="rVVp5lENT8qKNNDL8PIV-76" value="+ field: type" style="text;strokeColor=none;fillColor=none;align=left;verticalAlign=top;spacingLeft=4;spacingRight=4;overflow=hidden;rotatable=0;points=[[0,0.5],[1,0.5]];portConstraint=eastwest;whiteSpace=wrap;html=1;" vertex="1" parent="rVVp5lENT8qKNNDL8PIV-75">
          <mxGeometry y="26" width="160" height="26" as="geometry" />
        </mxCell>
        <mxCell id="rVVp5lENT8qKNNDL8PIV-77" value="" style="line;strokeWidth=1;fillColor=none;align=left;verticalAlign=middle;spacingTop=-1;spacingLeft=3;spacingRight=3;rotatable=0;labelPosition=right;points=[];portConstraint=eastwest;strokeColor=inherit;" vertex="1" parent="rVVp5lENT8qKNNDL8PIV-75">
          <mxGeometry y="52" width="160" height="8" as="geometry" />
        </mxCell>
        <mxCell id="rVVp5lENT8qKNNDL8PIV-78" value="+ method(type): type" style="text;strokeColor=none;fillColor=none;align=left;verticalAlign=top;spacingLeft=4;spacingRight=4;overflow=hidden;rotatable=0;points=[[0,0.5],[1,0.5]];portConstraint=eastwest;whiteSpace=wrap;html=1;" vertex="1" parent="rVVp5lENT8qKNNDL8PIV-75">
          <mxGeometry y="60" width="160" height="26" as="geometry" />
        </mxCell>
        <mxCell id="rVVp5lENT8qKNNDL8PIV-80" style="edgeStyle=orthogonalEdgeStyle;rounded=0;orthogonalLoop=1;jettySize=auto;html=1;entryX=0;entryY=0.5;entryDx=0;entryDy=0;endArrow=none;endFill=0;" edge="1" parent="1" source="rVVp5lENT8qKNNDL8PIV-81" target="rVVp5lENT8qKNNDL8PIV-86">
          <mxGeometry relative="1" as="geometry" />
        </mxCell>
        <mxCell id="rVVp5lENT8qKNNDL8PIV-81" value="Pessoa" style="swimlane;fontStyle=1;align=center;verticalAlign=top;childLayout=stackLayout;horizontal=1;startSize=26;horizontalStack=0;resizeParent=1;resizeParentMax=0;resizeLast=0;collapsible=1;marginBottom=0;whiteSpace=wrap;html=1;" vertex="1" parent="1">
          <mxGeometry x="185" y="1930" width="160" height="86" as="geometry" />
        </mxCell>
        <mxCell id="rVVp5lENT8qKNNDL8PIV-82" value="+ field: type" style="text;strokeColor=none;fillColor=none;align=left;verticalAlign=top;spacingLeft=4;spacingRight=4;overflow=hidden;rotatable=0;points=[[0,0.5],[1,0.5]];portConstraint=eastwest;whiteSpace=wrap;html=1;" vertex="1" parent="rVVp5lENT8qKNNDL8PIV-81">
          <mxGeometry y="26" width="160" height="26" as="geometry" />
        </mxCell>
        <mxCell id="rVVp5lENT8qKNNDL8PIV-83" value="" style="line;strokeWidth=1;fillColor=none;align=left;verticalAlign=middle;spacingTop=-1;spacingLeft=3;spacingRight=3;rotatable=0;labelPosition=right;points=[];portConstraint=eastwest;strokeColor=inherit;" vertex="1" parent="rVVp5lENT8qKNNDL8PIV-81">
          <mxGeometry y="52" width="160" height="8" as="geometry" />
        </mxCell>
        <mxCell id="rVVp5lENT8qKNNDL8PIV-84" value="+ method(type): type" style="text;strokeColor=none;fillColor=none;align=left;verticalAlign=top;spacingLeft=4;spacingRight=4;overflow=hidden;rotatable=0;points=[[0,0.5],[1,0.5]];portConstraint=eastwest;whiteSpace=wrap;html=1;" vertex="1" parent="rVVp5lENT8qKNNDL8PIV-81">
          <mxGeometry y="60" width="160" height="26" as="geometry" />
        </mxCell>
        <mxCell id="rVVp5lENT8qKNNDL8PIV-85" value="Empresa" style="swimlane;fontStyle=1;align=center;verticalAlign=top;childLayout=stackLayout;horizontal=1;startSize=26;horizontalStack=0;resizeParent=1;resizeParentMax=0;resizeLast=0;collapsible=1;marginBottom=0;whiteSpace=wrap;html=1;" vertex="1" parent="1">
          <mxGeometry x="475" y="1930" width="160" height="86" as="geometry" />
        </mxCell>
        <mxCell id="rVVp5lENT8qKNNDL8PIV-86" value="+ field: type" style="text;strokeColor=none;fillColor=none;align=left;verticalAlign=top;spacingLeft=4;spacingRight=4;overflow=hidden;rotatable=0;points=[[0,0.5],[1,0.5]];portConstraint=eastwest;whiteSpace=wrap;html=1;" vertex="1" parent="rVVp5lENT8qKNNDL8PIV-85">
          <mxGeometry y="26" width="160" height="26" as="geometry" />
        </mxCell>
        <mxCell id="rVVp5lENT8qKNNDL8PIV-87" value="" style="line;strokeWidth=1;fillColor=none;align=left;verticalAlign=middle;spacingTop=-1;spacingLeft=3;spacingRight=3;rotatable=0;labelPosition=right;points=[];portConstraint=eastwest;strokeColor=inherit;" vertex="1" parent="rVVp5lENT8qKNNDL8PIV-85">
          <mxGeometry y="52" width="160" height="8" as="geometry" />
        </mxCell>
        <mxCell id="rVVp5lENT8qKNNDL8PIV-88" value="+ method(type): type" style="text;strokeColor=none;fillColor=none;align=left;verticalAlign=top;spacingLeft=4;spacingRight=4;overflow=hidden;rotatable=0;points=[[0,0.5],[1,0.5]];portConstraint=eastwest;whiteSpace=wrap;html=1;" vertex="1" parent="rVVp5lENT8qKNNDL8PIV-85">
          <mxGeometry y="60" width="160" height="26" as="geometry" />
        </mxCell>
        <mxCell id="rVVp5lENT8qKNNDL8PIV-90" value="Trabalho" style="text;html=1;align=center;verticalAlign=middle;resizable=0;points=[];autosize=1;strokeColor=none;fillColor=none;" vertex="1" parent="1">
          <mxGeometry x="380" y="1930" width="70" height="30" as="geometry" />
        </mxCell>
        <mxCell id="rVVp5lENT8qKNNDL8PIV-91" value="OU" style="text;html=1;align=center;verticalAlign=middle;resizable=0;points=[];autosize=1;strokeColor=none;fillColor=none;" vertex="1" parent="1">
          <mxGeometry x="390" y="1858.5" width="40" height="30" as="geometry" />
        </mxCell>
        <mxCell id="rVVp5lENT8qKNNDL8PIV-92" value="Caça" style="edgeStyle=orthogonalEdgeStyle;rounded=0;orthogonalLoop=1;jettySize=auto;html=1;entryX=0;entryY=0.5;entryDx=0;entryDy=0;endArrow=none;endFill=0;" edge="1" parent="1" source="rVVp5lENT8qKNNDL8PIV-93" target="rVVp5lENT8qKNNDL8PIV-98">
          <mxGeometry relative="1" as="geometry" />
        </mxCell>
        <mxCell id="rVVp5lENT8qKNNDL8PIV-93" value="Gato" style="swimlane;fontStyle=1;align=center;verticalAlign=top;childLayout=stackLayout;horizontal=1;startSize=26;horizontalStack=0;resizeParent=1;resizeParentMax=0;resizeLast=0;collapsible=1;marginBottom=0;whiteSpace=wrap;html=1;" vertex="1" parent="1">
          <mxGeometry x="180" y="2110" width="160" height="86" as="geometry" />
        </mxCell>
        <mxCell id="rVVp5lENT8qKNNDL8PIV-94" value="+ field: type" style="text;strokeColor=none;fillColor=none;align=left;verticalAlign=top;spacingLeft=4;spacingRight=4;overflow=hidden;rotatable=0;points=[[0,0.5],[1,0.5]];portConstraint=eastwest;whiteSpace=wrap;html=1;" vertex="1" parent="rVVp5lENT8qKNNDL8PIV-93">
          <mxGeometry y="26" width="160" height="26" as="geometry" />
        </mxCell>
        <mxCell id="rVVp5lENT8qKNNDL8PIV-95" value="" style="line;strokeWidth=1;fillColor=none;align=left;verticalAlign=middle;spacingTop=-1;spacingLeft=3;spacingRight=3;rotatable=0;labelPosition=right;points=[];portConstraint=eastwest;strokeColor=inherit;" vertex="1" parent="rVVp5lENT8qKNNDL8PIV-93">
          <mxGeometry y="52" width="160" height="8" as="geometry" />
        </mxCell>
        <mxCell id="rVVp5lENT8qKNNDL8PIV-96" value="+ method(type): type" style="text;strokeColor=none;fillColor=none;align=left;verticalAlign=top;spacingLeft=4;spacingRight=4;overflow=hidden;rotatable=0;points=[[0,0.5],[1,0.5]];portConstraint=eastwest;whiteSpace=wrap;html=1;" vertex="1" parent="rVVp5lENT8qKNNDL8PIV-93">
          <mxGeometry y="60" width="160" height="26" as="geometry" />
        </mxCell>
        <mxCell id="rVVp5lENT8qKNNDL8PIV-97" value="Rato" style="swimlane;fontStyle=1;align=center;verticalAlign=top;childLayout=stackLayout;horizontal=1;startSize=26;horizontalStack=0;resizeParent=1;resizeParentMax=0;resizeLast=0;collapsible=1;marginBottom=0;whiteSpace=wrap;html=1;" vertex="1" parent="1">
          <mxGeometry x="470" y="2114" width="160" height="86" as="geometry" />
        </mxCell>
        <mxCell id="rVVp5lENT8qKNNDL8PIV-98" value="+ field: type" style="text;strokeColor=none;fillColor=none;align=left;verticalAlign=top;spacingLeft=4;spacingRight=4;overflow=hidden;rotatable=0;points=[[0,0.5],[1,0.5]];portConstraint=eastwest;whiteSpace=wrap;html=1;" vertex="1" parent="rVVp5lENT8qKNNDL8PIV-97">
          <mxGeometry y="26" width="160" height="26" as="geometry" />
        </mxCell>
        <mxCell id="rVVp5lENT8qKNNDL8PIV-99" value="" style="line;strokeWidth=1;fillColor=none;align=left;verticalAlign=middle;spacingTop=-1;spacingLeft=3;spacingRight=3;rotatable=0;labelPosition=right;points=[];portConstraint=eastwest;strokeColor=inherit;" vertex="1" parent="rVVp5lENT8qKNNDL8PIV-97">
          <mxGeometry y="52" width="160" height="8" as="geometry" />
        </mxCell>
        <mxCell id="rVVp5lENT8qKNNDL8PIV-100" value="+ method(type): type" style="text;strokeColor=none;fillColor=none;align=left;verticalAlign=top;spacingLeft=4;spacingRight=4;overflow=hidden;rotatable=0;points=[[0,0.5],[1,0.5]];portConstraint=eastwest;whiteSpace=wrap;html=1;" vertex="1" parent="rVVp5lENT8qKNNDL8PIV-97">
          <mxGeometry y="60" width="160" height="26" as="geometry" />
        </mxCell>
        <mxCell id="rVVp5lENT8qKNNDL8PIV-102" value="&lt;b&gt;&lt;font style=&quot;font-size: 18px;&quot;&gt;Multiplicidade&lt;/font&gt;&lt;/b&gt;" style="text;html=1;align=center;verticalAlign=middle;resizable=0;points=[];autosize=1;strokeColor=none;fillColor=none;" vertex="1" parent="1">
          <mxGeometry x="344" y="2270" width="140" height="40" as="geometry" />
        </mxCell>
        <mxCell id="rVVp5lENT8qKNNDL8PIV-111" style="edgeStyle=orthogonalEdgeStyle;rounded=0;orthogonalLoop=1;jettySize=auto;html=1;endArrow=none;endFill=0;" edge="1" parent="1" source="rVVp5lENT8qKNNDL8PIV-103" target="rVVp5lENT8qKNNDL8PIV-108">
          <mxGeometry relative="1" as="geometry" />
        </mxCell>
        <mxCell id="rVVp5lENT8qKNNDL8PIV-103" value="Pessoa" style="swimlane;fontStyle=1;align=center;verticalAlign=top;childLayout=stackLayout;horizontal=1;startSize=26;horizontalStack=0;resizeParent=1;resizeParentMax=0;resizeLast=0;collapsible=1;marginBottom=0;whiteSpace=wrap;html=1;" vertex="1" parent="1">
          <mxGeometry x="190" y="2370" width="160" height="86" as="geometry" />
        </mxCell>
        <mxCell id="rVVp5lENT8qKNNDL8PIV-104" value="+ field: type" style="text;strokeColor=none;fillColor=none;align=left;verticalAlign=top;spacingLeft=4;spacingRight=4;overflow=hidden;rotatable=0;points=[[0,0.5],[1,0.5]];portConstraint=eastwest;whiteSpace=wrap;html=1;" vertex="1" parent="rVVp5lENT8qKNNDL8PIV-103">
          <mxGeometry y="26" width="160" height="26" as="geometry" />
        </mxCell>
        <mxCell id="rVVp5lENT8qKNNDL8PIV-105" value="" style="line;strokeWidth=1;fillColor=none;align=left;verticalAlign=middle;spacingTop=-1;spacingLeft=3;spacingRight=3;rotatable=0;labelPosition=right;points=[];portConstraint=eastwest;strokeColor=inherit;" vertex="1" parent="rVVp5lENT8qKNNDL8PIV-103">
          <mxGeometry y="52" width="160" height="8" as="geometry" />
        </mxCell>
        <mxCell id="rVVp5lENT8qKNNDL8PIV-106" value="+ method(type): type" style="text;strokeColor=none;fillColor=none;align=left;verticalAlign=top;spacingLeft=4;spacingRight=4;overflow=hidden;rotatable=0;points=[[0,0.5],[1,0.5]];portConstraint=eastwest;whiteSpace=wrap;html=1;" vertex="1" parent="rVVp5lENT8qKNNDL8PIV-103">
          <mxGeometry y="60" width="160" height="26" as="geometry" />
        </mxCell>
        <mxCell id="rVVp5lENT8qKNNDL8PIV-107" value="Cpf" style="swimlane;fontStyle=1;align=center;verticalAlign=top;childLayout=stackLayout;horizontal=1;startSize=26;horizontalStack=0;resizeParent=1;resizeParentMax=0;resizeLast=0;collapsible=1;marginBottom=0;whiteSpace=wrap;html=1;" vertex="1" parent="1">
          <mxGeometry x="475" y="2370" width="160" height="86" as="geometry" />
        </mxCell>
        <mxCell id="rVVp5lENT8qKNNDL8PIV-108" value="+ field: type" style="text;strokeColor=none;fillColor=none;align=left;verticalAlign=top;spacingLeft=4;spacingRight=4;overflow=hidden;rotatable=0;points=[[0,0.5],[1,0.5]];portConstraint=eastwest;whiteSpace=wrap;html=1;" vertex="1" parent="rVVp5lENT8qKNNDL8PIV-107">
          <mxGeometry y="26" width="160" height="26" as="geometry" />
        </mxCell>
        <mxCell id="rVVp5lENT8qKNNDL8PIV-109" value="" style="line;strokeWidth=1;fillColor=none;align=left;verticalAlign=middle;spacingTop=-1;spacingLeft=3;spacingRight=3;rotatable=0;labelPosition=right;points=[];portConstraint=eastwest;strokeColor=inherit;" vertex="1" parent="rVVp5lENT8qKNNDL8PIV-107">
          <mxGeometry y="52" width="160" height="8" as="geometry" />
        </mxCell>
        <mxCell id="rVVp5lENT8qKNNDL8PIV-110" value="+ method(type): type" style="text;strokeColor=none;fillColor=none;align=left;verticalAlign=top;spacingLeft=4;spacingRight=4;overflow=hidden;rotatable=0;points=[[0,0.5],[1,0.5]];portConstraint=eastwest;whiteSpace=wrap;html=1;" vertex="1" parent="rVVp5lENT8qKNNDL8PIV-107">
          <mxGeometry y="60" width="160" height="26" as="geometry" />
        </mxCell>
        <mxCell id="rVVp5lENT8qKNNDL8PIV-112" value="1" style="text;html=1;align=center;verticalAlign=middle;resizable=0;points=[];autosize=1;strokeColor=none;fillColor=none;" vertex="1" parent="1">
          <mxGeometry x="345" y="2385" width="30" height="30" as="geometry" />
        </mxCell>
        <mxCell id="rVVp5lENT8qKNNDL8PIV-113" value="1" style="text;html=1;align=center;verticalAlign=middle;resizable=0;points=[];autosize=1;strokeColor=none;fillColor=none;" vertex="1" parent="1">
          <mxGeometry x="450" y="2385" width="30" height="30" as="geometry" />
        </mxCell>
        <mxCell id="rVVp5lENT8qKNNDL8PIV-114" value="possui" style="text;html=1;align=center;verticalAlign=middle;resizable=0;points=[];autosize=1;strokeColor=none;fillColor=none;" vertex="1" parent="1">
          <mxGeometry x="380" y="2385" width="60" height="30" as="geometry" />
        </mxCell>
        <mxCell id="rVVp5lENT8qKNNDL8PIV-115" style="edgeStyle=orthogonalEdgeStyle;rounded=0;orthogonalLoop=1;jettySize=auto;html=1;endArrow=none;endFill=0;" edge="1" parent="1" source="rVVp5lENT8qKNNDL8PIV-116" target="rVVp5lENT8qKNNDL8PIV-121">
          <mxGeometry relative="1" as="geometry" />
        </mxCell>
        <mxCell id="rVVp5lENT8qKNNDL8PIV-116" value="Pessoa" style="swimlane;fontStyle=1;align=center;verticalAlign=top;childLayout=stackLayout;horizontal=1;startSize=26;horizontalStack=0;resizeParent=1;resizeParentMax=0;resizeLast=0;collapsible=1;marginBottom=0;whiteSpace=wrap;html=1;" vertex="1" parent="1">
          <mxGeometry x="190" y="2500" width="160" height="86" as="geometry" />
        </mxCell>
        <mxCell id="rVVp5lENT8qKNNDL8PIV-117" value="+ field: type" style="text;strokeColor=none;fillColor=none;align=left;verticalAlign=top;spacingLeft=4;spacingRight=4;overflow=hidden;rotatable=0;points=[[0,0.5],[1,0.5]];portConstraint=eastwest;whiteSpace=wrap;html=1;" vertex="1" parent="rVVp5lENT8qKNNDL8PIV-116">
          <mxGeometry y="26" width="160" height="26" as="geometry" />
        </mxCell>
        <mxCell id="rVVp5lENT8qKNNDL8PIV-118" value="" style="line;strokeWidth=1;fillColor=none;align=left;verticalAlign=middle;spacingTop=-1;spacingLeft=3;spacingRight=3;rotatable=0;labelPosition=right;points=[];portConstraint=eastwest;strokeColor=inherit;" vertex="1" parent="rVVp5lENT8qKNNDL8PIV-116">
          <mxGeometry y="52" width="160" height="8" as="geometry" />
        </mxCell>
        <mxCell id="rVVp5lENT8qKNNDL8PIV-119" value="+ method(type): type" style="text;strokeColor=none;fillColor=none;align=left;verticalAlign=top;spacingLeft=4;spacingRight=4;overflow=hidden;rotatable=0;points=[[0,0.5],[1,0.5]];portConstraint=eastwest;whiteSpace=wrap;html=1;" vertex="1" parent="rVVp5lENT8qKNNDL8PIV-116">
          <mxGeometry y="60" width="160" height="26" as="geometry" />
        </mxCell>
        <mxCell id="rVVp5lENT8qKNNDL8PIV-120" value="Cnh" style="swimlane;fontStyle=1;align=center;verticalAlign=top;childLayout=stackLayout;horizontal=1;startSize=26;horizontalStack=0;resizeParent=1;resizeParentMax=0;resizeLast=0;collapsible=1;marginBottom=0;whiteSpace=wrap;html=1;" vertex="1" parent="1">
          <mxGeometry x="475" y="2500" width="160" height="86" as="geometry" />
        </mxCell>
        <mxCell id="rVVp5lENT8qKNNDL8PIV-121" value="+ field: type" style="text;strokeColor=none;fillColor=none;align=left;verticalAlign=top;spacingLeft=4;spacingRight=4;overflow=hidden;rotatable=0;points=[[0,0.5],[1,0.5]];portConstraint=eastwest;whiteSpace=wrap;html=1;" vertex="1" parent="rVVp5lENT8qKNNDL8PIV-120">
          <mxGeometry y="26" width="160" height="26" as="geometry" />
        </mxCell>
        <mxCell id="rVVp5lENT8qKNNDL8PIV-122" value="" style="line;strokeWidth=1;fillColor=none;align=left;verticalAlign=middle;spacingTop=-1;spacingLeft=3;spacingRight=3;rotatable=0;labelPosition=right;points=[];portConstraint=eastwest;strokeColor=inherit;" vertex="1" parent="rVVp5lENT8qKNNDL8PIV-120">
          <mxGeometry y="52" width="160" height="8" as="geometry" />
        </mxCell>
        <mxCell id="rVVp5lENT8qKNNDL8PIV-123" value="+ method(type): type" style="text;strokeColor=none;fillColor=none;align=left;verticalAlign=top;spacingLeft=4;spacingRight=4;overflow=hidden;rotatable=0;points=[[0,0.5],[1,0.5]];portConstraint=eastwest;whiteSpace=wrap;html=1;" vertex="1" parent="rVVp5lENT8qKNNDL8PIV-120">
          <mxGeometry y="60" width="160" height="26" as="geometry" />
        </mxCell>
        <mxCell id="rVVp5lENT8qKNNDL8PIV-124" value="1" style="text;html=1;align=center;verticalAlign=middle;resizable=0;points=[];autosize=1;strokeColor=none;fillColor=none;" vertex="1" parent="1">
          <mxGeometry x="345" y="2515" width="30" height="30" as="geometry" />
        </mxCell>
        <mxCell id="rVVp5lENT8qKNNDL8PIV-125" value="0..1" style="text;html=1;align=center;verticalAlign=middle;resizable=0;points=[];autosize=1;strokeColor=none;fillColor=none;" vertex="1" parent="1">
          <mxGeometry x="445" y="2515" width="40" height="30" as="geometry" />
        </mxCell>
        <mxCell id="rVVp5lENT8qKNNDL8PIV-126" value="possui" style="text;html=1;align=center;verticalAlign=middle;resizable=0;points=[];autosize=1;strokeColor=none;fillColor=none;" vertex="1" parent="1">
          <mxGeometry x="380" y="2515" width="60" height="30" as="geometry" />
        </mxCell>
        <mxCell id="rVVp5lENT8qKNNDL8PIV-127" style="edgeStyle=orthogonalEdgeStyle;rounded=0;orthogonalLoop=1;jettySize=auto;html=1;endArrow=none;endFill=0;" edge="1" parent="1" source="rVVp5lENT8qKNNDL8PIV-128" target="rVVp5lENT8qKNNDL8PIV-133">
          <mxGeometry relative="1" as="geometry" />
        </mxCell>
        <mxCell id="rVVp5lENT8qKNNDL8PIV-128" value="171" style="swimlane;fontStyle=1;align=center;verticalAlign=top;childLayout=stackLayout;horizontal=1;startSize=26;horizontalStack=0;resizeParent=1;resizeParentMax=0;resizeLast=0;collapsible=1;marginBottom=0;whiteSpace=wrap;html=1;" vertex="1" parent="1">
          <mxGeometry x="191" y="2630" width="160" height="86" as="geometry" />
        </mxCell>
        <mxCell id="rVVp5lENT8qKNNDL8PIV-129" value="+ field: type" style="text;strokeColor=none;fillColor=none;align=left;verticalAlign=top;spacingLeft=4;spacingRight=4;overflow=hidden;rotatable=0;points=[[0,0.5],[1,0.5]];portConstraint=eastwest;whiteSpace=wrap;html=1;" vertex="1" parent="rVVp5lENT8qKNNDL8PIV-128">
          <mxGeometry y="26" width="160" height="26" as="geometry" />
        </mxCell>
        <mxCell id="rVVp5lENT8qKNNDL8PIV-130" value="" style="line;strokeWidth=1;fillColor=none;align=left;verticalAlign=middle;spacingTop=-1;spacingLeft=3;spacingRight=3;rotatable=0;labelPosition=right;points=[];portConstraint=eastwest;strokeColor=inherit;" vertex="1" parent="rVVp5lENT8qKNNDL8PIV-128">
          <mxGeometry y="52" width="160" height="8" as="geometry" />
        </mxCell>
        <mxCell id="rVVp5lENT8qKNNDL8PIV-131" value="+ method(type): type" style="text;strokeColor=none;fillColor=none;align=left;verticalAlign=top;spacingLeft=4;spacingRight=4;overflow=hidden;rotatable=0;points=[[0,0.5],[1,0.5]];portConstraint=eastwest;whiteSpace=wrap;html=1;" vertex="1" parent="rVVp5lENT8qKNNDL8PIV-128">
          <mxGeometry y="60" width="160" height="26" as="geometry" />
        </mxCell>
        <mxCell id="rVVp5lENT8qKNNDL8PIV-132" value="Passaporte" style="swimlane;fontStyle=1;align=center;verticalAlign=top;childLayout=stackLayout;horizontal=1;startSize=26;horizontalStack=0;resizeParent=1;resizeParentMax=0;resizeLast=0;collapsible=1;marginBottom=0;whiteSpace=wrap;html=1;" vertex="1" parent="1">
          <mxGeometry x="476" y="2630" width="160" height="86" as="geometry" />
        </mxCell>
        <mxCell id="rVVp5lENT8qKNNDL8PIV-133" value="+ field: type" style="text;strokeColor=none;fillColor=none;align=left;verticalAlign=top;spacingLeft=4;spacingRight=4;overflow=hidden;rotatable=0;points=[[0,0.5],[1,0.5]];portConstraint=eastwest;whiteSpace=wrap;html=1;" vertex="1" parent="rVVp5lENT8qKNNDL8PIV-132">
          <mxGeometry y="26" width="160" height="26" as="geometry" />
        </mxCell>
        <mxCell id="rVVp5lENT8qKNNDL8PIV-134" value="" style="line;strokeWidth=1;fillColor=none;align=left;verticalAlign=middle;spacingTop=-1;spacingLeft=3;spacingRight=3;rotatable=0;labelPosition=right;points=[];portConstraint=eastwest;strokeColor=inherit;" vertex="1" parent="rVVp5lENT8qKNNDL8PIV-132">
          <mxGeometry y="52" width="160" height="8" as="geometry" />
        </mxCell>
        <mxCell id="rVVp5lENT8qKNNDL8PIV-135" value="+ method(type): type" style="text;strokeColor=none;fillColor=none;align=left;verticalAlign=top;spacingLeft=4;spacingRight=4;overflow=hidden;rotatable=0;points=[[0,0.5],[1,0.5]];portConstraint=eastwest;whiteSpace=wrap;html=1;" vertex="1" parent="rVVp5lENT8qKNNDL8PIV-132">
          <mxGeometry y="60" width="160" height="26" as="geometry" />
        </mxCell>
        <mxCell id="rVVp5lENT8qKNNDL8PIV-136" value="1" style="text;html=1;align=center;verticalAlign=middle;resizable=0;points=[];autosize=1;strokeColor=none;fillColor=none;" vertex="1" parent="1">
          <mxGeometry x="346" y="2645" width="30" height="30" as="geometry" />
        </mxCell>
        <mxCell id="rVVp5lENT8qKNNDL8PIV-137" value="0..*" style="text;html=1;align=center;verticalAlign=middle;resizable=0;points=[];autosize=1;strokeColor=none;fillColor=none;" vertex="1" parent="1">
          <mxGeometry x="446" y="2645" width="40" height="30" as="geometry" />
        </mxCell>
        <mxCell id="rVVp5lENT8qKNNDL8PIV-138" value="possui" style="text;html=1;align=center;verticalAlign=middle;resizable=0;points=[];autosize=1;strokeColor=none;fillColor=none;" vertex="1" parent="1">
          <mxGeometry x="381" y="2645" width="60" height="30" as="geometry" />
        </mxCell>
        <mxCell id="rVVp5lENT8qKNNDL8PIV-139" value="um para um" style="text;html=1;align=center;verticalAlign=middle;resizable=0;points=[];autosize=1;strokeColor=none;fillColor=none;" vertex="1" parent="1">
          <mxGeometry x="365" y="2415" width="90" height="30" as="geometry" />
        </mxCell>
        <mxCell id="rVVp5lENT8qKNNDL8PIV-140" value="um para muitos" style="text;html=1;align=center;verticalAlign=middle;resizable=0;points=[];autosize=1;strokeColor=none;fillColor=none;" vertex="1" parent="1">
          <mxGeometry x="355" y="2675" width="110" height="30" as="geometry" />
        </mxCell>
      </root>
    </mxGraphModel>
  </diagram>
</mxfile>
